<svg xmlns="http://www.w3.org/2000/svg" width="96" height="45" viewBox="0 0 96 45" fill="none">
  <path d="M34.9091 13.6604L28.1722 4.60844C28.1239 4.53729 28.0597 4.47826 27.9846 4.43595C27.9095 4.39365 27.8256 4.36922 27.7394 4.36458C27.6533 4.35994 27.5672 4.37523 27.488 4.40923C27.4088 4.44323 27.3385 4.49503 27.2828 4.56057L14.0614 18.321C13.797 18.5963 13.8992 18.8236 14.2838 18.8116L18.2201 18.7099C18.5264 18.6924 18.8334 18.6924 19.1396 18.7099C19.2598 18.7099 18.8031 19.1527 18.4906 19.38L6.369 28.1209C6.0565 28.3482 6.1166 28.5217 6.50122 28.5098L14.2297 28.3123C14.6143 28.3123 15.023 28.3123 15.1432 28.3123C15.2634 28.3123 14.7946 28.7431 14.4701 28.9465L0.215062 38.9019C-0.109462 39.1053 -0.0613799 39.2729 0.323241 39.2729H16.2369L34.9091 13.6604Z" fill="#FFFDF6"/>
  <path d="M61.091 13.6588L67.8267 4.60839C67.875 4.53726 67.9393 4.47824 68.0143 4.43594C68.0894 4.39364 68.1733 4.36922 68.2594 4.36458C68.3456 4.35995 68.4316 4.37523 68.5108 4.40922C68.59 4.44322 68.6603 4.49501 68.716 4.56054L81.9351 18.3187C82.1935 18.5938 82.0973 18.8211 81.7128 18.8092L77.7711 18.7075C77.4669 18.69 77.1619 18.69 76.8578 18.7075C76.7376 18.7075 77.1942 19.1501 77.5067 19.3774L89.6322 28.1288C89.9446 28.3561 89.8846 28.5296 89.5 28.5176L81.7789 28.3202C81.3943 28.3202 80.9797 28.3202 80.8595 28.3202C80.7394 28.3202 81.208 28.7509 81.5385 28.9543L95.7851 38.902C96.1095 39.1054 96.0615 39.2729 95.6769 39.2729H79.784L61.091 13.6588Z" fill="#FFFDF6"/>
  <path d="M80.4889 43.525L49.4477 0.527679C49.3579 0.367618 49.227 0.234366 49.0685 0.141624C48.91 0.0488829 48.7297 0 48.5461 0C48.3624 0 48.1821 0.0488829 48.0237 0.141624C47.8652 0.234366 47.7343 0.367618 47.6444 0.527679L16.6033 43.525C16.1164 44.1978 16.3989 44.7265 17.2044 44.7265H79.8577C80.6933 44.7505 80.9758 44.1978 80.4889 43.525ZM53.92 15.1144L50.5418 20.1189L48.7865 12.9697C48.5821 12.1586 48.2636 12.1586 48.0652 12.9697L45.6608 22.9425H37.6781C36.8545 22.9425 36.56 22.3898 37.0169 21.7049L47.7947 5.70033C47.8719 5.54741 47.99 5.4189 48.1359 5.32912C48.2819 5.23933 48.4499 5.19179 48.6212 5.19179C48.7926 5.19179 48.9606 5.23933 49.1065 5.32912C49.2524 5.4189 49.3706 5.54741 49.4477 5.70033L53.944 12.6092C54.1671 12.9899 54.2826 13.424 54.2784 13.8651C54.2742 14.3063 54.1503 14.7381 53.92 15.1144Z" fill="#FFFDF6"/>
</svg>