<svg xmlns="http://www.w3.org/2000/svg" width="23" height="21" viewBox="0 0 23 21" fill="none">
  <path d="M11.5 21L10.1639 19.7869C8.15723 17.9483 6.4978 16.3684 5.18559 15.0472C3.87338 13.7258 2.83354 12.5498 2.06607 11.5192C1.29859 10.4887 0.76243 9.54868 0.457579 8.69898C0.152526 7.84949 0 6.98747 0 6.11291C0 4.37787 0.579237 2.92523 1.73771 1.75502C2.89639 0.585005 4.33469 0 6.05263 0C7.10942 0 8.1081 0.249611 9.04868 0.748832C9.98926 1.24805 10.8064 1.96398 11.5 2.89661C12.1936 1.96398 13.0107 1.24805 13.9513 0.748832C14.8919 0.249611 15.8906 0 16.9474 0C18.6653 0 20.1036 0.585005 21.2623 1.75502C22.4208 2.92523 23 4.37787 23 6.11291C23 6.98747 22.8475 7.84949 22.5424 8.69898C22.2376 9.54868 21.7014 10.4887 20.9339 11.5192C20.1665 12.5498 19.1285 13.7258 17.8202 15.0472C16.512 16.3684 14.8506 17.9483 12.8361 19.7869L11.5 21ZM11.5 18.5221C13.4368 16.762 15.0307 15.2534 16.2816 13.9961C17.5325 12.7391 18.5211 11.647 19.2474 10.7199C19.9737 9.79279 20.4781 8.96948 20.7605 8.24999C21.043 7.5307 21.1842 6.81834 21.1842 6.11291C21.1842 4.89033 20.7807 3.87151 19.9737 3.05646C19.1667 2.2414 18.1579 1.83387 16.9474 1.83387C15.9915 1.83387 15.108 2.10773 14.2969 2.65545C13.4861 3.20337 12.844 3.96555 12.3707 4.94199H10.6293C10.1481 3.9576 9.50404 3.19349 8.69703 2.64964C7.89001 2.1058 7.00854 1.83387 6.05263 1.83387C4.84977 1.83387 3.84292 2.2414 3.03207 3.05646C2.22122 3.87151 1.81579 4.89033 1.81579 6.11291C1.81579 6.81834 1.95702 7.5307 2.23947 8.24999C2.52193 8.96948 3.02632 9.79279 3.75263 10.7199C4.47895 11.647 5.46754 12.7372 6.71842 13.9903C7.9693 15.2435 9.56316 16.7541 11.5 18.5221Z" fill="black"/>
</svg>