<svg xmlns="http://www.w3.org/2000/svg" width="16" height="17" viewBox="0 0 16 17" fill="none">
  <path d="M8 2.17283C10.1205 2.17283 10.4096 2.17283 11.2771 2.17283C12.0482 2.17283 12.4337 2.36561 12.7229 2.46199C13.1084 2.65476 13.3976 2.75115 13.6867 3.0403C13.9759 3.32946 14.1687 3.61862 14.2651 4.00416C14.3614 4.29332 14.4578 4.67886 14.5542 5.44994C14.5542 6.31741 14.5542 6.51018 14.5542 8.72705C14.5542 10.9439 14.5542 11.1367 14.5542 12.0042C14.5542 12.7752 14.3614 13.1608 14.2651 13.4499C14.0723 13.8355 13.9759 14.1246 13.6867 14.4138C13.3976 14.703 13.1084 14.8957 12.7229 14.9921C12.4337 15.0885 12.0482 15.1849 11.2771 15.2813C10.4096 15.2813 10.2169 15.2813 8 15.2813C5.78313 15.2813 5.59036 15.2813 4.72289 15.2813C3.95181 15.2813 3.56627 15.0885 3.27711 14.9921C2.89157 14.7993 2.60241 14.703 2.31325 14.4138C2.0241 14.1246 1.83133 13.8355 1.73494 13.4499C1.63855 13.1608 1.54217 12.7752 1.44578 12.0042C1.44578 11.1367 1.44578 10.9439 1.44578 8.72705C1.44578 6.51018 1.44578 6.31741 1.44578 5.44994C1.44578 4.67886 1.63855 4.29332 1.73494 4.00416C1.92771 3.61862 2.0241 3.32946 2.31325 3.0403C2.60241 2.75115 2.89157 2.55838 3.27711 2.46199C3.56627 2.36561 3.95181 2.26922 4.72289 2.17283C5.59036 2.17283 5.87952 2.17283 8 2.17283ZM8 0.727051C5.78313 0.727051 5.59036 0.727051 4.72289 0.727051C3.85542 0.727051 3.27711 0.919822 2.79518 1.11259C2.31325 1.30536 1.83133 1.59452 1.3494 2.07645C0.867471 2.55838 0.674699 2.94392 0.385543 3.52223C0.192772 4.00416 0.0963856 4.58247 0 5.44994C0 6.31741 0 6.60657 0 8.72705C0 10.9439 0 11.1367 0 12.0042C0 12.8716 0.192772 13.4499 0.385543 13.9319C0.578314 14.4138 0.867471 14.8957 1.3494 15.3777C1.83133 15.8596 2.21687 16.0524 2.79518 16.3415C3.27711 16.5343 3.85542 16.6307 4.72289 16.7271C5.59036 16.7271 5.87952 16.7271 8 16.7271C10.1205 16.7271 10.4096 16.7271 11.2771 16.7271C12.1446 16.7271 12.7229 16.5343 13.2048 16.3415C13.6867 16.1487 14.1687 15.8596 14.6506 15.3777C15.1325 14.8957 15.3253 14.5102 15.6145 13.9319C15.8072 13.4499 15.9036 12.8716 16 12.0042C16 11.1367 16 10.8475 16 8.72705C16 6.60657 16 6.31741 16 5.44994C16 4.58247 15.8072 4.00416 15.6145 3.52223C15.4217 3.0403 15.1325 2.55838 14.6506 2.07645C14.1687 1.59452 13.7831 1.40175 13.2048 1.11259C12.7229 0.919822 12.1446 0.823436 11.2771 0.727051C10.4096 0.727051 10.2169 0.727051 8 0.727051Z" fill="#181A1B"/>
  <path d="M8 4.58247C5.68675 4.58247 3.85542 6.4138 3.85542 8.72705C3.85542 11.0403 5.68675 12.8716 8 12.8716C10.3133 12.8716 12.1446 11.0403 12.1446 8.72705C12.1446 6.4138 10.3133 4.58247 8 4.58247ZM8 11.4258C6.55422 11.4258 5.30121 10.2692 5.30121 8.72705C5.30121 7.28127 6.45783 6.02826 8 6.02826C9.44578 6.02826 10.6988 7.18488 10.6988 8.72705C10.6988 10.1728 9.44578 11.4258 8 11.4258Z" fill="#181A1B"/>
  <path d="M12.241 5.44994C12.7733 5.44994 13.2048 5.01841 13.2048 4.48609C13.2048 3.95377 12.7733 3.52223 12.241 3.52223C11.7086 3.52223 11.2771 3.95377 11.2771 4.48609C11.2771 5.01841 11.7086 5.44994 12.241 5.44994Z" fill="#181A1B"/>
</svg>