<svg xmlns="http://www.w3.org/2000/svg" width="195" height="71" viewBox="0 0 195 71" fill="none">
  <path d="M23.4233 54.9069C23.2735 56.0197 22.7541 58.2708 22.5566 59.0138H9.94531V58.1497C12.0483 57.9743 12.2936 57.8308 12.2936 55.7232V46.234C12.2936 44.0817 12.0483 43.9573 10.2926 43.8075V42.9434H21.9384C21.9639 43.3898 22.0882 45.1212 22.187 46.6549L21.2948 46.7792C21.0495 45.9119 20.7277 45.0956 20.2816 44.6492C19.8355 44.2028 19.1951 44.0307 17.809 44.0307H16.6237C15.7061 44.0307 15.6073 44.0817 15.6073 44.898V50.1432H17.2642C19.3416 50.1432 19.6634 50.0188 20.0108 48.2874H20.8997V53.2871H20.0108C19.6634 51.5047 19.3735 51.4058 17.2642 51.4058H15.6137V55.6722C15.6137 56.836 15.7125 57.4546 16.2095 57.7033C16.6524 57.901 17.484 57.9488 18.4399 57.9488C19.7144 57.9488 20.5938 57.7766 21.1865 57.158C21.7633 56.4222 22.2292 55.6058 22.5693 54.7347L23.4233 54.9069Z" fill="black"/>
  <path d="M30.7117 48.4434C30.2593 47.0819 29.4595 45.478 27.6848 45.478C27.404 45.4721 27.125 45.5238 26.8651 45.63C26.6051 45.7362 26.3696 45.8945 26.1731 46.0953C25.9766 46.2961 25.8234 46.5351 25.7228 46.7974C25.6222 47.0598 25.5764 47.34 25.5882 47.6207C25.5882 48.8101 26.3657 49.5052 28.2679 50.4554C30.5397 51.5618 32.0914 52.7735 32.0914 54.9194C32.0914 57.3873 29.9948 59.3132 26.834 59.3132C26.0566 59.3132 25.1198 59.2176 24.5335 58.8796C23.5426 58.3088 22.9404 57.7987 22.6951 57.3969C22.4019 56.9027 22.8544 56.1757 22.6951 54.8461L23.4215 54.7823C23.8517 56.1661 25.1612 58.4141 27.2451 58.4141C28.5674 58.4141 29.4085 57.5053 29.4085 56.1406C29.4085 54.8652 28.4527 54.0649 26.834 53.2007C24.6036 52.0752 23.071 50.905 23.071 48.826C23.071 46.4442 24.9541 44.582 28.0257 44.582C29.0539 44.5994 30.071 44.798 31.0304 45.1687C31.1196 45.9691 31.2693 46.9224 31.4446 48.2648L30.7117 48.4434Z" fill="black"/>
  <path d="M45.5176 55.3059C45.1975 56.4805 44.7928 57.6303 44.3068 58.7464C42.9867 59.0632 41.639 59.2512 40.2826 59.3076C34.5473 59.3076 32.1289 55.561 32.1289 52.1205C32.1289 47.682 35.5478 44.5859 40.7318 44.5859C42.0632 44.6248 43.3852 44.8217 44.6701 45.1726C44.8644 46.362 45.0142 47.3568 45.1671 48.7215L44.3674 48.8746C43.6505 46.2982 41.9872 45.5393 40.3208 45.5393C37.1855 45.5393 35.4554 48.5079 35.4554 51.6869C35.4554 55.6694 37.5966 58.2904 40.5534 58.2904C42.3505 58.2904 43.6887 57.1425 44.7943 54.9552L45.5176 55.3059Z" fill="black"/>
  <path d="M50.2318 58.9895V58.2306C51.5063 58.0361 51.6146 57.7778 51.2705 56.8244C51.0538 56.1867 50.7288 55.2652 50.4038 54.3788H46.2617C46.0227 55.0484 45.7423 55.8296 45.4811 56.6937C45.1624 57.7332 45.223 58.0361 46.8002 58.2306V58.9895H41.957L41.9793 58.2306C43.4068 58.0584 43.6649 57.8224 44.3786 55.9986L48.8139 44.8736L49.9163 44.5898C51.2992 48.3811 52.6406 52.1468 54.0585 55.8678C54.7913 57.781 55.0749 58.0552 56.4355 58.2274V58.9895H50.2318ZM48.3933 48.5564H48.3264C47.721 50.1348 47.1793 51.694 46.6186 53.2309H49.9928L48.3933 48.5564Z" fill="black"/>
  <path d="M61.7552 44.9121C63.463 44.9121 64.6961 45.1513 65.5405 45.7571C66.0551 46.1091 66.4715 46.5866 66.7503 47.1446C67.0291 47.7025 67.161 48.3224 67.1336 48.9457C67.1336 51.8473 64.9924 53.1673 62.7206 53.4479C62.4193 53.4831 62.1159 53.498 61.8125 53.4926L60.3405 53.145V56.1168C60.3405 57.9566 60.538 58.1096 62.3956 58.2595V58.9865H55.6758V58.2499C57.2976 58.1001 57.492 57.9311 57.492 56.1072V47.8265C57.492 45.9867 57.2976 45.8559 55.8064 45.6837V44.9249L61.7552 44.9121ZM60.3469 52.2905C60.7211 52.4297 61.1169 52.502 61.5162 52.5041C62.316 52.5041 64.0461 51.9429 64.0461 49.019C64.0461 46.5734 62.6633 45.773 61.3442 45.773C61.0607 45.7526 60.7788 45.8291 60.5444 45.9898C60.393 46.1783 60.322 46.4189 60.3469 46.6594V52.2905Z" fill="black"/>
  <path d="M77.704 55.3898C77.5734 56.3655 77.1209 58.3328 76.9489 58.9833H65.918V58.2244C67.7533 58.0745 67.9699 57.9438 67.9699 56.104V47.7914C67.9699 45.9101 67.7533 45.7985 66.2175 45.671V44.9121H76.4136C76.4359 45.3011 76.5442 46.8253 76.6302 48.1613L75.8496 48.2697C75.6361 47.5108 75.3525 46.7966 74.9638 46.4076C74.5751 46.0185 74.0079 45.8655 72.8003 45.8655H71.7552C70.9555 45.8655 70.8694 45.9101 70.8694 46.6244V51.2127H72.3288C74.1449 51.2127 74.4253 51.1043 74.728 49.5897H75.515V53.9613H74.7185C74.4158 52.4021 74.1577 52.316 72.3192 52.316H70.8694V56.0594C70.8694 57.0765 70.9555 57.6218 71.3888 57.8354C71.8221 58.049 72.5136 58.0522 73.3356 58.0522C74.4381 58.0522 75.2155 57.9024 75.7349 57.3603C76.2414 56.717 76.6505 56.0025 76.9489 55.2399L77.704 55.3898Z" fill="black"/>
  <path d="M89.8533 42.584C94.3141 42.584 98.0134 45.9001 98.0134 50.8009C98.0134 56.145 94.1899 59.3846 89.5315 59.3846C84.5832 59.3846 81.1484 55.7496 81.1484 50.9986C81.1484 46.7419 84.1658 42.584 89.8279 42.584H89.8533ZM89.3563 43.5979C86.8837 43.5979 84.9305 46.2477 84.9305 50.5267C84.9305 54.758 86.8105 58.3483 89.9744 58.3483C92.3259 58.3483 94.2281 56.0461 94.2281 51.4929C94.2281 46.5697 92.2271 43.5979 89.3818 43.5979H89.3563Z" fill="black"/>
  <path d="M112.562 45.6735C111.37 45.7404 110.831 46.1932 110.723 46.9489C110.573 47.9449 110.508 48.9519 110.529 49.9589V52.3185C110.529 54.6142 110.181 56.4317 108.971 57.739C108.445 58.26 107.819 58.6696 107.132 58.9436C106.444 59.2175 105.709 59.35 104.969 59.3333C103.541 59.3333 102.178 59.0304 101.145 58.2078C99.9121 57.2512 99.3513 55.6569 99.3513 53.106V48.0043C99.3513 45.97 99.1347 45.8201 97.5352 45.6671V44.9082H104.045V45.6671C102.468 45.8201 102.251 45.97 102.251 48.0043V52.7075C102.251 55.9566 103.417 57.8379 105.756 57.8379C108.327 57.8379 109.452 55.8897 109.452 52.277V49.9589C109.469 48.9513 109.397 47.9441 109.238 46.9489C109.13 46.1932 108.601 45.7596 107.139 45.6735V44.9146H112.555L112.562 45.6735Z" fill="black"/>
  <path d="M142.835 44.6113C146.747 44.6113 149.972 47.5129 149.972 51.7984C149.972 56.476 146.62 59.3107 142.551 59.3107C138.227 59.3107 135.223 56.1221 135.223 51.9769C135.223 48.2527 137.861 44.6145 142.816 44.6145L142.835 44.6113ZM142.401 45.5009C140.238 45.5009 138.53 47.8158 138.53 51.5592C138.53 55.258 140.174 58.3987 142.943 58.3987C144.998 58.3987 146.661 56.3835 146.661 52.401C146.661 48.0964 144.912 45.4978 142.424 45.4978L142.401 45.5009Z" fill="black"/>
  <path d="M157.023 44.6113C160.936 44.6113 164.16 47.5129 164.16 51.7984C164.16 56.476 160.808 59.3107 156.742 59.3107C152.416 59.3107 149.414 56.1221 149.414 51.9769C149.414 48.2527 152.055 44.6145 157.007 44.6145L157.023 44.6113ZM156.59 45.5009C154.426 45.5009 152.718 47.8158 152.718 51.5592C152.718 55.258 154.362 58.3987 157.131 58.3987C159.186 58.3987 160.853 56.3835 160.853 52.401C160.853 48.0964 159.1 45.4978 156.612 45.4978L156.59 45.5009Z" fill="black"/>
  <path d="M178.568 59.1778L176.297 59.1555C173.569 59.0279 172.728 58.4189 171.861 57.0574C171.301 56.171 170.717 55.0008 170.09 53.8688C169.742 53.1992 169.354 52.9378 168.659 52.9122H168.248V56.0753C168.248 57.8482 168.465 58.065 170.09 58.2148V58.9865H163.555V58.2276C165.18 58.0777 165.415 57.8609 165.415 56.0881V47.7723C165.415 46.0377 165.221 45.824 163.644 45.671V44.9121H169.72C171.603 44.9121 172.706 45.1289 173.569 45.7379C174.04 46.0491 174.424 46.4768 174.682 46.9795C174.939 47.4822 175.063 48.043 175.041 48.6077C175.041 50.5208 173.786 51.5316 172.339 52.1374C172.658 52.7751 173.464 54.2132 174.092 55.2112C174.584 56.033 175.14 56.8145 175.755 57.5484C176.106 57.968 176.561 58.2889 177.074 58.4795L178.568 59.1778ZM168.812 52.08C169.72 52.08 170.456 51.927 170.931 51.4933C171.667 50.8875 171.97 50.0234 171.97 48.917C171.97 46.6244 170.631 45.7794 169.421 45.7794C168.879 45.7794 168.576 45.8655 168.449 45.9962C168.321 46.127 168.251 46.3438 168.251 46.7966V52.08H168.812Z" fill="black"/>
  <path d="M184.072 48.4441C183.616 47.0826 182.817 45.4787 181.045 45.4787C180.764 45.4729 180.485 45.5246 180.225 45.6307C179.965 45.7368 179.729 45.8952 179.532 46.0959C179.336 46.2966 179.182 46.5355 179.081 46.7979C178.98 47.0603 178.934 47.3405 178.945 47.6215C178.945 48.8108 179.723 49.5059 181.628 50.4561C183.9 51.5625 185.452 52.7742 185.452 54.9201C185.445 57.3944 183.358 59.3076 180.201 59.3076C179.461 59.3113 178.725 59.2093 178.015 59.0047C177.565 58.875 177.124 58.7152 176.696 58.5264C176.501 57.9875 176.221 56.17 176.059 54.85L176.817 54.6108C177.247 55.9947 178.525 58.418 180.602 58.418C181.921 58.418 182.766 57.5092 182.766 56.1445C182.766 54.8691 181.81 54.0688 180.191 53.2047C177.961 52.0791 176.428 50.9089 176.428 48.8299C176.428 46.4481 178.308 44.5859 181.38 44.5859C182.409 44.6034 183.427 44.802 184.388 45.1726C184.474 45.973 184.623 46.9264 184.799 48.2687L184.072 48.4441Z" fill="black"/>
  <path d="M134.04 46.7988C132.631 45.4564 130.535 44.9144 127.83 44.9144H123.567V44.8984H122.066C121.968 44.909 121.871 44.9144 121.773 44.9144H111.803C111.667 44.9162 111.531 44.9109 111.395 44.8984H110.025C109.967 45.9507 109.866 47.2931 109.789 48.6386H110.567C110.847 47.5577 111.127 46.8211 111.475 46.4513C111.822 46.0814 112.685 45.8678 114.46 45.8678H115.193V56.119C115.193 57.9588 114.98 58.0896 113.163 58.2394V58.9888H119.746V58.1884C118.277 58.0417 118.096 57.7867 118.096 56.1095V45.8678H119.867C121.123 45.8678 121.683 45.9985 122.053 46.3875C122.423 46.7765 122.744 47.4907 123.009 48.6195H123.054V56.0871C123.054 57.7962 122.862 58.0481 121.46 58.1948V58.9888H126.686C129.388 58.9888 131.637 58.4052 133.237 57.1936C134.881 55.9182 135.942 54.0305 135.942 51.3904C135.956 50.5354 135.795 49.6867 135.468 48.8968C135.14 48.1069 134.654 47.3928 134.04 46.7988ZM127.772 58.0545C126.259 58.0545 125.934 57.5124 125.934 55.9564V47.2962C125.934 46.6585 125.982 46.3014 126.173 46.1069C126.304 45.9762 126.759 45.7881 127.537 45.7881C128.185 45.7614 128.831 45.8669 129.437 46.0982C130.043 46.3296 130.595 46.6818 131.061 47.1336C132.036 48.0902 132.654 49.7514 132.654 51.8081C132.676 55.6726 130.685 58.0545 127.772 58.0545Z" fill="black"/>
  <path d="M90.5592 17.6793L86.9874 12.855C86.9617 12.8171 86.9277 12.7856 86.8879 12.7631C86.8481 12.7405 86.8036 12.7275 86.7579 12.725C86.7122 12.7226 86.6666 12.7307 86.6246 12.7488C86.5826 12.767 86.5453 12.7946 86.5158 12.8295L79.506 20.1632C79.3658 20.3099 79.42 20.4311 79.6239 20.4247L81.7109 20.3705C81.8733 20.3612 82.036 20.3612 82.1984 20.3705C82.2621 20.3705 82.02 20.6064 81.8543 20.7276L75.4276 25.3861C75.2619 25.5073 75.2937 25.5997 75.4977 25.5934L79.5952 25.4881C79.7991 25.4881 80.0158 25.4881 80.0795 25.4881C80.1432 25.4881 79.8947 25.7177 79.7226 25.8261L72.1648 31.1319C71.9927 31.2403 72.0182 31.3296 72.2222 31.3296H80.6594L90.5592 17.6793Z" fill="black"/>
  <path d="M104.832 17.6793L108.404 12.855C108.429 12.8171 108.464 12.7856 108.503 12.7631C108.543 12.7405 108.588 12.7275 108.633 12.725C108.679 12.7226 108.725 12.7307 108.767 12.7488C108.809 12.767 108.846 12.7946 108.875 12.8295L115.885 20.1632C116.022 20.3099 115.971 20.4311 115.767 20.4247L113.677 20.3705C113.516 20.3612 113.354 20.3612 113.193 20.3705C113.129 20.3705 113.371 20.6064 113.537 20.7276L119.967 25.3925C120.133 25.5136 120.101 25.6061 119.897 25.5997L115.802 25.4945C115.598 25.4945 115.379 25.4945 115.315 25.4945C115.251 25.4945 115.5 25.7241 115.675 25.8325L123.23 31.1351C123.402 31.2435 123.376 31.3328 123.172 31.3328H114.745L104.832 17.6793Z" fill="black"/>
  <path d="M114.627 33.5519L98.1735 10.7312C98.1259 10.6463 98.0565 10.5756 97.9725 10.5263C97.8885 10.4771 97.7929 10.4512 97.6956 10.4512C97.5982 10.4512 97.5026 10.4771 97.4186 10.5263C97.3346 10.5756 97.2653 10.6463 97.2176 10.7312L80.7637 33.5519C80.5056 33.909 80.6554 34.1896 81.0823 34.1896H114.293C114.736 34.2023 114.886 33.909 114.627 33.5519ZM100.544 18.4731L98.7534 21.1292L97.823 17.3348C97.7147 16.9043 97.5458 16.9043 97.4407 17.3348L96.1661 22.6278H91.9348C91.4983 22.6278 91.3421 22.3345 91.5843 21.971L97.2973 13.4766C97.3382 13.3954 97.4008 13.3272 97.4781 13.2796C97.5555 13.2319 97.6446 13.2067 97.7354 13.2067C97.8262 13.2067 97.9153 13.2319 97.9926 13.2796C98.07 13.3272 98.1326 13.3954 98.1735 13.4766L100.557 17.1435C100.675 17.3455 100.736 17.5759 100.734 17.81C100.732 18.0442 100.666 18.2733 100.544 18.4731Z" fill="black"/>
</svg>