<svg xmlns="http://www.w3.org/2000/svg" width="16" height="17" viewBox="0 0 16 17" fill="none">
  <g clip-path="url(#clip0_7515_394)">
    <path d="M7.2173 0.727051C2.8321 0.727051 0.5 3.53718 0.5 6.60132C0.5 8.02238 1.29404 9.79446 2.56509 10.3565C2.7581 10.4435 2.86311 10.4065 2.90611 10.2275C2.94411 10.0915 3.11112 9.43644 3.19212 9.12743C3.21712 9.02842 3.20412 8.94242 3.12412 8.84942C2.7021 8.36139 2.36708 7.47235 2.36708 6.63832C2.36708 4.50122 4.06616 2.42613 6.95729 2.42613C9.4574 2.42613 11.2065 4.0502 11.2065 6.3733C11.2065 8.99842 9.81742 10.8145 8.01234 10.8145C7.01329 10.8145 6.26926 10.0305 6.50527 9.06043C6.79028 7.90537 7.34931 6.66332 7.34931 5.83028C7.34931 5.08325 6.92729 4.46522 6.06525 4.46522C5.0482 4.46522 4.22317 5.47226 4.22317 6.82433C4.22317 7.68336 4.52718 8.26339 4.52718 8.26339C4.52718 8.26339 3.52114 12.3276 3.33413 13.0866C3.01811 14.3717 3.37713 16.4528 3.40813 16.6318C3.42713 16.7308 3.53814 16.7618 3.60014 16.6808C3.69914 16.5508 4.9152 14.8157 5.25621 13.5616C5.38022 13.1046 5.88924 11.2515 5.88924 11.2515C6.22426 11.8566 7.1913 12.3636 8.22135 12.3636C11.2855 12.3636 13.4996 9.67045 13.4996 6.3283C13.4886 3.12416 10.7465 0.727051 7.2173 0.727051Z" fill="#18191B"/>
  </g>
  <defs>
    <clipPath id="clip0_7515_394">
      <rect width="16" height="16" fill="white" transform="translate(0 0.727051)"/>
    </clipPath>
  </defs>
</svg>