<svg width="24" height="25" viewBox="0 0 24 25" fill="none" xmlns="http://www.w3.org/2000/svg">
<path fill-rule="evenodd" clip-rule="evenodd" d="M12.0001 3.75C10.0672 3.75 8.50015 5.317 8.50015 7.25C8.50015 9.183 10.0672 10.75 12.0001 10.75C13.9331 10.75 15.5001 9.183 15.5001 7.25C15.5001 5.317 13.9331 3.75 12.0001 3.75ZM6.50015 7.25C6.50015 4.21243 8.96258 1.75 12.0001 1.75C15.0377 1.75 17.5001 4.21243 17.5001 7.25C17.5001 10.2876 15.0377 12.75 12.0001 12.75C8.96258 12.75 6.50015 10.2876 6.50015 7.25Z" fill="#121212"/>
<path fill-rule="evenodd" clip-rule="evenodd" d="M6.10421 15.75C5.41089 15.75 4.86898 16.0876 4.64901 16.5726C4.34455 17.2439 4.06885 18.0432 4.00379 18.8012C3.9747 19.14 4.11599 19.3897 4.31067 19.5107C5.33983 20.15 7.72454 21.25 12.0001 21.25C16.2758 21.25 18.6605 20.15 19.6896 19.5107C19.8843 19.3897 20.0256 19.14 19.9965 18.8012C19.9314 18.0432 19.6557 17.2439 19.3513 16.5726C19.1313 16.0876 18.5894 15.75 17.8961 15.75H6.10421ZM2.82758 15.7466C3.43552 14.4061 4.79306 13.75 6.10421 13.75H17.8961C19.2072 13.75 20.5648 14.4061 21.1727 15.7466C21.5219 16.5165 21.8966 17.5515 21.9892 18.6301C22.0735 19.6124 21.6652 20.6379 20.745 21.2096C19.3914 22.0504 16.6397 23.25 12.0001 23.25C7.36055 23.25 4.60885 22.0504 3.25531 21.2096C2.33505 20.6379 1.92681 19.6124 2.01112 18.6301C2.10369 17.5515 2.47839 16.5165 2.82758 15.7466Z" fill="#121212"/>
</svg>
