<svg xmlns="http://www.w3.org/2000/svg" width="21" height="20" viewBox="0 0 21 20" fill="none">
  <path d="M20.3087 18.8783L15.4628 13.9683C16.738 12.4444 17.5882 10.582 17.5882 8.46561C17.5032 3.80952 13.7625 0 9.00159 0C4.2407 0 0.5 3.80952 0.5 8.46561C0.5 13.1217 4.32572 16.9312 9.00159 16.9312C11.042 16.9312 12.9973 16.1693 14.5276 14.8995L19.3735 19.8095C19.6286 20.0635 20.0537 20.0635 20.3087 19.8095C20.5638 19.6402 20.5638 19.2169 20.3087 18.8783ZM1.77524 8.46561C1.77524 4.57143 4.92083 1.3545 8.91658 1.3545C12.9123 1.3545 16.0579 4.48677 16.0579 8.46561C16.0579 12.4444 12.9123 15.5767 8.91658 15.5767C4.92083 15.5767 1.77524 12.4444 1.77524 8.46561Z" fill="black"/>
</svg>